<?xml version="1.0" encoding="UTF-8" standalone="no"?>
<!-- Created with Inkscape (http://www.inkscape.org/) -->

<svg
   xmlns:dc="http://purl.org/dc/elements/1.1/"
   xmlns:cc="http://creativecommons.org/ns#"
   xmlns:rdf="http://www.w3.org/1999/02/22-rdf-syntax-ns#"
   xmlns:svg="http://www.w3.org/2000/svg"
   xmlns="http://www.w3.org/2000/svg"
   xmlns:sodipodi="http://sodipodi.sourceforge.net/DTD/sodipodi-0.dtd"
   xmlns:inkscape="http://www.inkscape.org/namespaces/inkscape"
   width="49.927013mm"
   height="29.261391mm"
   viewBox="0 0 49.927013 29.261391"
   version="1.1"
   id="svg8"
   inkscape:version="0.92.3 (2405546, 2018-03-11)"
   sodipodi:docname="logotipo-senac.svg">
  <defs
     id="defs2">
    <clipPath
       id="clipPath47"
       clipPathUnits="userSpaceOnUse">
      <path
         inkscape:connector-curvature="0"
         id="path45"
         d="M 0,595.276 H 595.276 V 0 H 0 Z" />
    </clipPath>
    <clipPath
       id="clipPath71"
       clipPathUnits="userSpaceOnUse">
      <path
         inkscape:connector-curvature="0"
         id="path69"
         d="M 0,595.276 H 595.276 V 0 H 0 Z" />
    </clipPath>
    <clipPath
       id="clipPath85"
       clipPathUnits="userSpaceOnUse">
      <path
         inkscape:connector-curvature="0"
         id="path83"
         d="M 0,0 H 595.276 V 595.276 H 0 Z" />
    </clipPath>
    <clipPath
       id="clipPath133"
       clipPathUnits="userSpaceOnUse">
      <path
         inkscape:connector-curvature="0"
         id="path131"
         d="m 177.007,195.622 h 141.525 v 82.946 H 177.007 Z" />
    </clipPath>
  </defs>
  <sodipodi:namedview
     id="base"
     pagecolor="#ffffff"
     bordercolor="#666666"
     borderopacity="1.0"
     inkscape:pageopacity="0.0"
     inkscape:pageshadow="2"
     inkscape:zoom="0.47623877"
     inkscape:cx="102.17955"
     inkscape:cy="62.651987"
     inkscape:document-units="mm"
     inkscape:current-layer="layer1"
     showgrid="false"
     fit-margin-top="0"
     fit-margin-left="0"
     fit-margin-right="0"
     fit-margin-bottom="0"
     inkscape:window-width="1366"
     inkscape:window-height="719"
     inkscape:window-x="0"
     inkscape:window-y="0"
     inkscape:window-maximized="1" />
  <metadata
     id="metadata5">
    <rdf:RDF>
      <cc:Work
         rdf:about="">
        <dc:format>image/svg+xml</dc:format>
        <dc:type
           rdf:resource="http://purl.org/dc/dcmitype/StillImage" />
        <dc:title></dc:title>
      </cc:Work>
    </rdf:RDF>
  </metadata>
  <g
     inkscape:label="Camada 1"
     inkscape:groupmode="layer"
     id="layer1"
     transform="translate(-50.414415,-154.64005)">
    <path
       inkscape:connector-curvature="0"
       id="path137"
       style="fill:#004b8d;fill-opacity:1;fill-rule:nonzero;stroke:none;stroke-width:0.35277778"
       d="m 84.304823,155.16 c -0.83185,-0.19579 -1.667581,-0.38135 -2.531533,-0.50765 -0.0321,-0.005 -0.06844,-0.007 -0.100895,-0.0123 -1.227314,0.90663 -2.357614,1.90676 -3.375025,2.98167 1.12642,-0.16545 2.276828,-0.27022 3.451578,-0.31291 4.1021,-0.15028 8.002411,0.52211 11.52278,1.80305 -2.539294,-1.74943 -5.603875,-3.12808 -8.966905,-3.95182" />
    <path
       inkscape:connector-curvature="0"
       id="path141"
       style="fill:#f68b1f;fill-opacity:1;fill-rule:nonzero;stroke:none;stroke-width:0.35277778"
       d="m 82.475917,164.19072 c 4.642908,-2.19146 9.503833,-3.11679 14.090297,-2.915 -3.948289,-1.74414 -8.480072,-2.66171 -13.270794,-2.48814 -2.361847,0.0868 -4.642908,0.43427 -6.802967,1.00541 -1.078089,1.44745 -1.9685,3.00391 -2.644775,4.64185 1.041753,1.02447 2.178403,1.98967 3.401836,2.87902 1.594909,-1.18004 3.340806,-2.23202 5.226403,-3.12314" />
    <path
       inkscape:connector-curvature="0"
       id="path145"
       style="fill:#fcbb7e;fill-opacity:1;fill-rule:nonzero;stroke:none;stroke-width:0.35277778"
       d="m 76.492383,159.79296 c -1.796697,0.47449 -3.512608,1.10419 -5.127272,1.87149 1.634772,2.08315 3.605389,3.99379 5.882569,5.64938 h 0.0018 c -1.223433,-0.89041 -2.360083,-1.8542 -3.401836,-2.87902 0.676628,-1.63689 1.566686,-3.1937 2.644775,-4.64185" />
    <path
       inkscape:connector-curvature="0"
       id="path149"
       style="fill:#fcbb7e;fill-opacity:1;fill-rule:nonzero;stroke:none;stroke-width:0.35277778"
       d="m 77.25149,167.31468 c -1.223433,-0.88829 -2.361847,-1.85526 -3.4036,-2.87972 -0.966964,2.33962 -1.493661,4.8461 -1.501775,7.44608 1.417108,-1.66441 3.060347,-3.19864 4.905375,-4.56636" />
    <path
       inkscape:connector-curvature="0"
       id="path153"
       style="fill:#004b8d;fill-opacity:1;fill-rule:nonzero;stroke:none;stroke-width:0.35277778"
       d="m 100.34143,181.45874 c -0.0564,0.001 -0.11289,0.003 -0.17145,0.003 -2.35585,0 -4.063647,-1.50812 -4.063647,-3.58528 v -0.0466 c 0,-1.9872 1.711678,-3.54365 3.895727,-3.54365 0.11747,0 0.23036,0.004 0.33937,0.0102 v -2.38725 c -0.10089,-0.004 -0.20602,-0.004 -0.3108,-0.004 -4.279544,0 -7.509578,2.56504 -7.509578,5.97146 v 0.0434 c 0,3.32281 3.274131,5.92596 7.4549,5.92596 0.127358,0 0.244118,-0.003 0.365478,-0.006 z" />
    <path
       inkscape:connector-curvature="0"
       id="path157"
       style="fill:#004b8d;fill-opacity:1;fill-rule:nonzero;stroke:none;stroke-width:0.35277778"
       d="m 57.073448,176.45631 c -2.525536,-0.53869 -2.880783,-0.79728 -2.880783,-1.59561 v -0.0363 c 0,-0.58843 0.648052,-1.05692 1.878541,-1.05692 0.627592,0 1.447448,0.17074 2.022828,0.38382 v -2.546 c -0.535164,-0.0924 -1.356783,-0.19861 -1.980494,-0.19861 -2.985559,0 -5.112456,1.45838 -5.112456,3.66395 v 0.0332 c 0,2.41159 1.896534,3.08786 4.840817,3.71263 2.441575,0.5207 2.671939,0.86784 2.671939,1.54517 v 0.0346 c 0,0.7112 -0.793398,1.14441 -2.108553,1.14441 -1.669697,0 -2.776008,-0.5722 -4.090106,-1.47496 l -1.900766,1.89195 c 1.753658,1.30069 3.715808,1.9438 5.928077,1.9438 3.152423,0 5.365045,-1.35325 5.365045,-3.76555 v -0.0346 c 0,-2.11773 -1.671814,-3.00284 -4.634089,-3.6449" />
    <path
       inkscape:connector-curvature="0"
       id="path161"
       style="fill:#004b8d;fill-opacity:1;fill-rule:nonzero;stroke:none;stroke-width:0.35277778"
       d="m 66.875202,173.14578 c -3.278364,0 -5.567539,2.34174 -5.567539,5.18301 v 0.0363 c 0,3.04694 2.499078,5.14667 5.88257,5.14667 0.09701,0 0.411691,-0.013 0.508705,-0.0152 v -2.27012 c -0.08079,0.003 -0.383469,0.0183 -0.468136,0.0183 -1.429456,0 -2.436989,-0.6671 -2.753783,-1.95015 h 7.76993 c 0.01834,-0.26141 0.04022,-0.42792 0.04022,-0.70768 v -0.0353 c 0,-2.82399 -1.653117,-5.40597 -5.411964,-5.40597 m -2.4384,4.38538 c 0.252236,-1.28164 1.114425,-2.11949 2.4384,-2.11949 1.342672,0 2.1844,0.85513 2.374194,2.11949 z" />
    <path
       inkscape:connector-curvature="0"
       id="path165"
       style="fill:#004b8d;fill-opacity:1;fill-rule:nonzero;stroke:none;stroke-width:0.35277778"
       d="m 82.419226,178.05616 c 0,-2.69381 -1.647119,-4.79637 -5.131505,-4.79637 -3.488267,0 -5.135739,2.10256 -5.135739,4.79637 v 5.27191 h 3.228269 v -5.46664 c 0.05856,-0.99731 0.450145,-2.17523 1.90747,-2.17523 1.453444,0 1.877483,1.17792 1.933927,2.17523 v 5.46664 h 3.197578 z" />
    <path
       inkscape:connector-curvature="0"
       id="path169"
       style="fill:#004b8d;fill-opacity:1;fill-rule:nonzero;stroke:none;stroke-width:0.35277778"
       d="m 89.629615,179.78484 c -0.277636,1.45556 -1.780469,1.67393 -2.121253,1.69192 -2.429933,0.12806 -2.516364,-1.53388 -1.699683,-2.04011 1.09855,-0.68051 3.830814,-0.29775 3.830814,-0.29775 0,0.0984 0.02575,0.34643 -0.0099,0.64594 m -1.961797,-6.58248 c -0.141111,0 -0.629708,0.002 -0.763058,0.006 v 2.40947 c 0.621947,0.006 1.473552,0.11077 1.853141,0.3108 0.557742,0.29351 0.84702,0.7881 0.860778,1.45803 -0.760589,-0.0889 -1.622778,-0.14993 -2.369961,-0.16898 -3.049411,-0.0783 -4.556831,0.92992 -4.859514,2.54352 -0.006,0.03 -0.01129,0.0607 -0.01658,0.0917 -0.0014,0.0102 -0.0032,0.0208 -0.0046,0.031 -0.02399,0.15416 -0.03739,0.31609 -0.03739,0.48789 v 0.0363 c 0,1.97203 1.74378,3.04906 3.863622,3.04906 1.556456,0 2.628194,-0.50377 3.4036,-1.26471 v 1.14758 h 3.088569 v -5.84693 c 0,-2.69523 -1.53423,-4.29084 -5.018616,-4.29084" />
  </g>
</svg>
